<?xml version="1.0" standalone="no"?>
<!DOCTYPE svg PUBLIC "-//W3C//DTD SVG 20010904//EN"
 "http://www.w3.org/TR/2001/REC-SVG-20010904/DTD/svg10.dtd">
<svg version="1.0" xmlns="http://www.w3.org/2000/svg"
 width="360.000000pt" height="360.000000pt" viewBox="0 0 360.000000 360.000000"
 preserveAspectRatio="xMidYMid meet">

<g transform="translate(0.000000,360.000000) scale(0.100000,-0.100000)"
fill="#000000" stroke="none">
<path d="M1637 2685 c-442 -84 -759 -485 -734 -930 23 -403 299 -734 694 -832
93 -23 313 -23 406 0 335 83 591 339 674 674 23 93 23 313 0 406 -82 329 -331
584 -655 668 -103 27 -282 33 -385 14z m333 -100 c294 -68 510 -272 602 -565
20 -64 23 -96 23 -220 0 -124 -3 -156 -23 -220 -92 -293 -308 -497 -602 -565
-84 -19 -256 -19 -340 0 -294 68 -510 272 -602 565 -20 64 -23 96 -23 220 0
124 3 156 23 220 90 289 297 487 587 561 89 22 266 24 355 4z"/>
<path d="M1540 2146 c0 -23 265 -606 285 -625 18 -18 38 -25 80 -29 l55 -5
-19 44 c-75 174 -236 529 -251 554 -11 17 -28 36 -40 43 -22 14 -110 29 -110
18z"/>
<path d="M1962 2140 c-47 -10 -133 -54 -157 -80 -14 -15 -13 -23 12 -78 l28
-61 34 41 c113 134 324 84 362 -86 33 -148 -59 -278 -197 -280 l-51 -1 22 -50
22 -50 60 1 c33 0 74 8 92 17 32 16 33 16 67 -18 19 -19 39 -35 44 -35 12 0
40 54 40 77 0 10 -7 31 -15 47 -14 27 -14 32 5 71 81 168 19 380 -132 454 -70
34 -163 46 -236 31z"/>
<path d="M1483 2040 c-11 -25 -70 -156 -132 -293 -61 -136 -111 -249 -111
-252 0 -3 28 -5 62 -5 59 0 62 1 96 41 47 55 101 79 180 79 67 0 102 20 102
60 0 11 -9 29 -20 40 -17 17 -33 20 -101 20 -73 0 -80 2 -74 18 47 114 57 213
31 297 l-13 40 -20 -45z"/>
</g>
</svg>
